<?xml version="1.0" encoding="utf-8"?>
<!-- Generator: Adobe Illustrator 17.1.0, SVG Export Plug-In . SVG Version: 6.00 Build 0)  -->
<!DOCTYPE svg PUBLIC "-//W3C//DTD SVG 1.1//EN" "http://www.w3.org/Graphics/SVG/1.1/DTD/svg11.dtd" [
	<!ENTITY st0 "fill:none;stroke:#231815;stroke-width:1.75;stroke-linecap:round;stroke-miterlimit:10;">
	<!ENTITY st1 "fill:none;stroke:#231815;stroke-width:1.75;stroke-linecap:round;stroke-linejoin:round;stroke-miterlimit:10;">
	<!ENTITY st2 "fill:#231815;">
	<!ENTITY st3 "fill:none;stroke:#231815;stroke-width:1.25;stroke-linecap:round;stroke-linejoin:round;stroke-miterlimit:10;">
	<!ENTITY st4 "fill:none;stroke:#231815;stroke-width:0.75;stroke-linecap:round;stroke-linejoin:round;stroke-miterlimit:10;">
	<!ENTITY st5 "fill:#4D4D4D;">
	<!ENTITY st6 "font-family:'MicrosoftYaHei';">
	<!ENTITY st7 "font-size:14.802;">
	<!ENTITY st8 "font-size:12;">
	<!ENTITY st9 "fill:url(#SVGID_1_);">
	<!ENTITY st10 "fill:url(#SVGID_2_);">
	<!ENTITY st11 "fill:url(#SVGID_3_);">
	<!ENTITY st12 "fill:none;stroke:#FFFFFF;stroke-miterlimit:10;">
	<!ENTITY st13 "fill:none;stroke:#000000;stroke-miterlimit:10;">
]>
<svg version="1.1" id="图层_1" xmlns="http://www.w3.org/2000/svg" xmlns:xlink="http://www.w3.org/1999/xlink" x="0px" y="0px"
	 viewBox="0 0 525 100.5" style="enable-background:new 0 0 525 100.5;" xml:space="preserve">
<g>
	<path style="&st0;" d="M85.9,33.6c3.7,0,6.7-3,6.7-6.7s-3-6.7-6.7-6.7s-6.7,3-6.7,6.7v6.7H85.9z"/>
	<path style="&st0;" d="M79.1,44.5c0,6,4.9,10.9,10.9,10.9c6,0,10.9-4.9,10.9-10.9S96,33.6,90,33.6H79.1V44.5z"/>
	<path style="&st0;" d="M198.4,57.4c-6,0-10.9-4.9-10.9-10.9V27.6"/>
	<path style="&st1;" d="M124.3,51.1c-1.9,2.6-4.8,4.3-8,4.3c-5.9,0-10.6-5.7-10.6-12.8s4.8-12.8,10.6-12.8S127,35.6,127,42.6v0
		c0,0.7-0.6,1.3-1.3,1.3h-19.9"/>
	<line style="&st1;" x1="106.4" y1="40.1" x2="126.2" y2="40.1"/>
	<path style="&st1;" d="M151.1,51.1c-1.9,2.6-4.8,4.3-8,4.3c-5.9,0-10.6-5.7-10.6-12.8s4.8-12.8,10.6-12.8s10.6,5.7,10.6,12.8v0
		c0,0.7-0.6,1.3-1.3,1.3h-19.9"/>
	<path style="&st0;" d="M214.1,55.4V42.6c0-7,4.8-12.8,10.6-12.8c5.9,0,10.6,5.7,10.6,12.8v12.8"/>
	<line style="&st1;" x1="133.3" y1="40.1" x2="153.3" y2="40.1"/>
	<path style="&st1;" d="M259.6,51.1c-1.9,2.6-4.8,4.3-8,4.3c-5.9,0-10.6-5.7-10.6-12.8s4.8-12.8,10.6-12.8c5.9,0,10.6,5.7,10.6,12.8
		v0c0,0.7-0.6,1.3-1.3,1.3H241"/>
	<line style="&st1;" x1="241.7" y1="40.1" x2="261.5" y2="40.1"/>
	<line style="&st0;" x1="187.5" y1="31.9" x2="198.4" y2="31.9"/>
	<path style="&st0;" d="M279.5,57.4c-6,0-10.9-4.9-10.9-10.9V27.6"/>
	<line style="&st0;" x1="268.6" y1="31.9" x2="279.5" y2="31.9"/>
	<line style="&st0;" x1="179.5" y1="31.9" x2="179.5" y2="55.4"/>
	<line style="&st0;" x1="159.2" y1="24.2" x2="159.2" y2="55.4"/>
	<path style="&st1;" d="M173.6,55.7l-10.3-10.3c-0.9-0.9-0.9-2.4,0-3.3l10.3-10.3"/>
	<circle style="&st2;" cx="206.6" cy="54.9" r="1.6"/>
	<circle style="&st2;" cx="179.5" cy="26.3" r="1.6"/>
</g>
<path style="&st3;" d="M293.7,33.8v-1.9c0-1.2,1-2.1,2.1-2.1h31.7c1.2,0,2.1,1,2.1,2.1v1.9"/>
<path style="&st3;" d="M293.7,40.8v-3.6c0-0.8,0.6-1.4,1.4-1.4h1.7c0.8,0,1.4,0.6,1.4,1.4v1c0,1.6,1.3,2.8,2.8,2.8h21.3
	c1.6,0,2.8-1.3,2.8-2.8v-1c0-0.8,0.6-1.4,1.4-1.4h1.7c0.8,0,1.4,0.6,1.4,1.4v3.8"/>
<line style="&st3;" x1="311.7" y1="29.8" x2="311.7" y2="27.7"/>
<line style="&st3;" x1="419.2" y1="29.8" x2="419.2" y2="27.7"/>
<line style="&st3;" x1="427" y1="29.8" x2="427" y2="27.7"/>
<path style="&st3;" d="M302.7,35.8h6.9c1.2,0,2.1,1,2.1,2.1v7.6"/>
<path style="&st3;" d="M295.9,45.6h31.7c1.2,0,2.1,1,2.1,2.1v2.5c0,1.2-1,2.1-2.1,2.1h-31.7c-1.2,0-2.1-1-2.1-2.1v-2.5
	C293.7,46.5,294.7,45.6,295.9,45.6z"/>
<line style="&st3;" x1="311.7" y1="52.3" x2="311.7" y2="56.8"/>
<path style="&st3;" d="M293.7,56.9h33.9c1.2,0,2.1-1,2.1-2.1v-0.2"/>
<path style="&st4;" d="M463.8,56.9h13.5"/>
<path style="&st3;" d="M414.3,45.6h33.9c1.2,0,2.1-1,2.1-2.1v-0.2"/>
<path style="&st3;" d="M336.5,29.8h-0.1c-1.2,0-2.1,1-2.1,2.1v11.5c0,1.2,1,2.1,2.1,2.1h0.1"/>
<path style="&st3;" d="M341,29.8h0.1c1.2,0,2.1,1,2.1,2.1v11.5c0,1.2-1,2.1-2.1,2.1H341"/>
<path style="&st3;" d="M338.7,27.7v22.5c0,1.2-1,2.1-2.1,2.1h-0.2c-1.2,0-2.1,1-2.1,2.1v0.2c0,1.2,1,2.1,2.1,2.1h6.9"/>
<path style="&st3;" d="M347.7,27.7L347.7,27.7c0,1.2,1,2.1,2.1,2.1h18.2c1.2,0,2.1,1,2.1,2.1v0.2c0,1.2-1,2.1-2.1,2.1h-20.5
	c-1.2,0-2.1,1-2.1,2.1v0.2c0,1.2,1,2.1,2.1,2.1h20.5c1.2,0,2.1,1,2.1,2.1v2.4"/>
<path style="&st3;" d="M436.2,27.7L436.2,27.7c0,1.2,1,2.1,2.1,2.1h9.2c1.2,0,2.1,1,2.1,2.1v0.2c0,1.2-1,2.1-2.1,2.1h-9.9
	c-1.2,0-2.1,0.9-2.1,2.1v2.3c0,1.2,0.9,2.1,2.1,2.1h12.1"/>
<path style="&st3;" d="M401.4,31.9v3.7c0,1.2-1,1.7-2.1,1.7h-21.8c-1.2,0-2.1,1-2.1,2.1v3.1c0,1.2,1,2.1,2.1,2.1h21.8
	c1.2,0,2.1,1,2.1,2.1v3.3c0,1.2-1,2.1-2.1,2.1h-21c-1.2,0-2.1,1-2.1,2.1v2.8"/>
<line style="&st3;" x1="345.5" y1="45.6" x2="370.2" y2="45.6"/>
<line style="&st3;" x1="345.5" y1="50.1" x2="370.2" y2="50.1"/>
<line style="&st3;" x1="345.5" y1="54.6" x2="370.2" y2="54.6"/>
<line style="&st3;" x1="356.7" y1="41.1" x2="356.7" y2="45.6"/>
<line style="&st3;" x1="356.7" y1="54.6" x2="356.7" y2="61.3"/>
<line style="&st3;" x1="415.6" y1="50.1" x2="448.2" y2="50.1"/>
<line style="&st3;" x1="414.3" y1="54.6" x2="449.6" y2="54.6"/>
<path style="&st3;" d="M432.6,54.6v4.6c0,1.2-1,2.1-2.1,2.1h-2.1"/>
<line style="&st3;" x1="401.4" y1="35.7" x2="401.4" y2="27.7"/>
<line style="&st3;" x1="377.3" y1="29.8" x2="397.7" y2="29.8"/>
<line style="&st3;" x1="414.3" y1="29.8" x2="432.4" y2="29.8"/>
<line style="&st3;" x1="407.1" y1="27.7" x2="407.1" y2="57.2"/>
<path style="&st4;" d="M470.9,56.9V30c0-0.8-1-1.3-1.6-0.7l-5.3,5.3"/>
<path style="&st3;" d="M415.6,33.1h14.2c1.2,0,2.1,0.9,2.1,2.1v3.6c0,1.2-0.9,2.1-2.1,2.1h-13.5c-1.2,0-2.1-0.9-2.1-2.1v0
	c0-1.2,0.9-2.1,2.1-2.1h12"/>
<text transform="matrix(1 0 0 1 149.3059 81.7318)" style="&st5; &st6; &st7;">Designer task tool</text>
<text transform="matrix(1 0 0 1 292.2252 80.9847)" style="&st5; &st6; &st8;">设计极速沟通利器</text>
<line style="&st4;" x1="480.5" y1="56.9" x2="480.1" y2="56.9"/>
<path style="&st4;" d="M491.4,28.8h-5c-2.3,0-4.3,1.9-4.3,4.3v19.8c0,2.3,1.9,4.3,4.3,4.3h5c2.3,0,4.3-1.9,4.3-4.3V33.1
	C495.7,30.7,493.8,28.8,491.4,28.8z"/>
<g>
	
		<radialGradient id="SVGID_1_" cx="36.5897" cy="27.7844" r="34.8116" gradientTransform="matrix(0.3266 -0.9452 0.727 0.2512 4.4418 55.3888)" gradientUnits="userSpaceOnUse">
		<stop  offset="0" style="stop-color:#FFFFFF"/>
		<stop  offset="2.141556e-02" style="stop-color:#EBEAEA"/>
		<stop  offset="8.145385e-02" style="stop-color:#B8B5B4"/>
		<stop  offset="0.1437" style="stop-color:#8B8584"/>
		<stop  offset="0.2068" style="stop-color:#655D5B"/>
		<stop  offset="0.2711" style="stop-color:#463C3A"/>
		<stop  offset="0.3368" style="stop-color:#2E2321"/>
		<stop  offset="0.4046" style="stop-color:#1C110E"/>
		<stop  offset="0.4758" style="stop-color:#120604"/>
		<stop  offset="0.556" style="stop-color:#0F0300"/>
		<stop  offset="0.6589" style="stop-color:#130806"/>
		<stop  offset="0.7909" style="stop-color:#1F1716"/>
		<stop  offset="0.9382" style="stop-color:#333030"/>
		<stop  offset="1" style="stop-color:#3D3D3D"/>
	</radialGradient>
	<path style="&st9;" d="M55.8,48.2c7.4-7.4,7.4-19.5,0-27s-19.5-7.4-27,0s-7.4,19.5,0,27l13.5,13.5L55.8,48.2z"/>
	<radialGradient id="SVGID_2_" cx="35.9557" cy="25.929" r="29.7692" gradientUnits="userSpaceOnUse">
		<stop  offset="0" style="stop-color:#FFFFFF"/>
		<stop  offset="6.798106e-02" style="stop-color:#FFFFFC"/>
		<stop  offset="0.1116" style="stop-color:#FFFFF4"/>
		<stop  offset="0.1484" style="stop-color:#FEFFE5"/>
		<stop  offset="0.1814" style="stop-color:#FDFFD0"/>
		<stop  offset="0.2119" style="stop-color:#FCFFB5"/>
		<stop  offset="0.2405" style="stop-color:#FBFF93"/>
		<stop  offset="0.2677" style="stop-color:#F9FF6C"/>
		<stop  offset="0.2937" style="stop-color:#F7FF3E"/>
		<stop  offset="0.3179" style="stop-color:#F5FF0B"/>
		<stop  offset="0.3228" style="stop-color:#F5FF00"/>
		<stop  offset="0.4598" style="stop-color:#EEE93A"/>
		<stop  offset="0.5283" style="stop-color:#F0E533"/>
		<stop  offset="0.6279" style="stop-color:#F6DB20"/>
		<stop  offset="0.746" style="stop-color:#FFCA00"/>
		<stop  offset="0.7463" style="stop-color:#FFCA00"/>
		<stop  offset="0.7801" style="stop-color:#FFE019"/>
		<stop  offset="0.8176" style="stop-color:#FFF12D"/>
		<stop  offset="0.8552" style="stop-color:#FFFC39"/>
		<stop  offset="0.8926" style="stop-color:#FFFF3D"/>
	</radialGradient>
	<path style="&st10;" d="M25.9,25.4c-0.9,1-1.6,3-2,5h36.8c-0.4-2-1.1-4-2-5H25.9z M59.9,42.4c0.6-2,1.1-3,1.3-5H23.4
		c0.2,2,0.6,3,1.3,5H59.9z"/>
	<linearGradient id="SVGID_3_" gradientUnits="userSpaceOnUse" x1="41.9802" y1="19.8094" x2="41.9802" y2="30.211">
		<stop  offset="0" style="stop-color:#FFFFFF"/>
		<stop  offset="1" style="stop-color:#FFFFFF;stop-opacity:0"/>
	</linearGradient>
	<ellipse style="&st11;" cx="42" cy="25.5" rx="11.3" ry="7"/>
	<line style="&st12;" x1="25.4" y1="24.9" x2="58.4" y2="24.9"/>
	<line style="&st12;" x1="23.4" y1="37.9" x2="60.4" y2="37.9"/>
	<line style="&st13;" x1="23.4" y1="29.9" x2="60.4" y2="29.9"/>
	<line style="&st13;" x1="24.4" y1="41.9" x2="59.4" y2="41.9"/>
</g>
</svg>
