<?xml version="1.0" encoding="utf-8"?>
<!-- Generator: Adobe Illustrator 17.1.0, SVG Export Plug-In . SVG Version: 6.00 Build 0)  -->
<!DOCTYPE svg PUBLIC "-//W3C//DTD SVG 1.1//EN" "http://www.w3.org/Graphics/SVG/1.1/DTD/svg11.dtd" [
	<!ENTITY st0 "fill:none;stroke:#231815;stroke-width:1.75;stroke-linecap:round;stroke-miterlimit:10;">
	<!ENTITY st1 "fill:none;stroke:#231815;stroke-width:1.75;stroke-linecap:round;stroke-linejoin:round;stroke-miterlimit:10;">
	<!ENTITY st2 "fill:#231815;">
	<!ENTITY st3 "fill:none;stroke:#231815;stroke-width:1.25;stroke-linecap:round;stroke-linejoin:round;stroke-miterlimit:10;">
	<!ENTITY st4 "fill:none;stroke:#231815;stroke-width:0.75;stroke-linecap:round;stroke-linejoin:round;stroke-miterlimit:10;">
]>
<svg version="1.1" id="图层_1" xmlns="http://www.w3.org/2000/svg" xmlns:xlink="http://www.w3.org/1999/xlink" x="0px" y="0px"
	 viewBox="85.3 383.2 481.3 51.6" style="enable-background:new 85.3 383.2 481.3 51.6;" xml:space="preserve">
<g>
	<path style="&st0;" d="M97.4,402.1c4.2,0,7.6-3.4,7.6-7.6c0-4.2-3.4-7.6-7.6-7.6c-4.2,0-7.6,3.4-7.6,7.6v7.6H97.4z"/>
	<path style="&st0;" d="M89.7,414.4c0,6.8,5.6,12.4,12.4,12.4s12.4-5.6,12.4-12.4c0-6.8-5.6-12.4-12.4-12.4H89.7V414.4z"/>
	<path style="&st0;" d="M225,429.1c-6.8,0-12.4-5.6-12.4-12.4v-21.4"/>
	<path style="&st1;" d="M140.9,421.9c-2.2,2.9-5.4,4.9-9.1,4.9c-6.7,0-12-6.5-12-14.5s5.4-14.5,12-14.5c6.6,0,12.1,6.6,12.1,14.5
		l0,0c0,0.8-0.7,1.5-1.5,1.5H120"/>
	<line style="&st1;" x1="120.6" y1="409.4" x2="143.1" y2="409.4"/>
	<path style="&st1;" d="M171.3,421.9c-2.2,2.9-5.4,4.9-9.1,4.9c-6.7,0-12-6.5-12-14.5s5.4-14.5,12-14.5s12,6.5,12,14.5l0,0
		c0,0.8-0.7,1.5-1.5,1.5h-22.6"/>
	<path style="&st0;" d="M242.8,426.8v-14.5c0-7.9,5.4-14.5,12-14.5c6.7,0,12,6.5,12,14.5v14.5"/>
	<line style="&st1;" x1="151.1" y1="409.4" x2="173.8" y2="409.4"/>
	<path style="&st1;" d="M294.4,421.9c-2.2,2.9-5.4,4.9-9.1,4.9c-6.7,0-12-6.5-12-14.5s5.4-14.5,12-14.5c6.7,0,12,6.5,12,14.5l0,0
		c0,0.8-0.7,1.5-1.5,1.5h-22.6"/>
	<line style="&st1;" x1="274.1" y1="409.4" x2="296.5" y2="409.4"/>
	<line style="&st0;" x1="212.6" y1="400.1" x2="225" y2="400.1"/>
	<path style="&st0;" d="M316.9,429.1c-6.8,0-12.4-5.6-12.4-12.4v-21.4"/>
	<line style="&st0;" x1="304.6" y1="400.1" x2="316.9" y2="400.1"/>
	<line style="&st0;" x1="203.5" y1="400.1" x2="203.5" y2="426.8"/>
	<line style="&st0;" x1="180.5" y1="391.4" x2="180.5" y2="426.8"/>
	<path style="&st1;" d="M196.8,427.1l-11.7-11.7c-1-1-1-2.7,0-3.7l11.7-11.7"/>
	<circle style="&st2;" cx="234.3" cy="426.2" r="1.8"/>
	<circle style="&st2;" cx="203.5" cy="393.8" r="1.8"/>
</g>
<path style="&st3;" d="M333,402.3v-2.2c0-1.4,1.1-2.4,2.4-2.4h35.9c1.4,0,2.4,1.1,2.4,2.4v2.2"/>
<path style="&st3;" d="M333,410.2v-4.1c0-0.9,0.7-1.6,1.6-1.6h1.9c0.9,0,1.6,0.7,1.6,1.6v1.1c0,1.8,1.5,3.2,3.2,3.2h24.2
	c1.8,0,3.2-1.5,3.2-3.2v-1.1c0-0.9,0.7-1.6,1.6-1.6h1.9c0.9,0,1.6,0.7,1.6,1.6v4.3"/>
<line style="&st3;" x1="353.4" y1="397.8" x2="353.4" y2="395.4"/>
<line style="&st3;" x1="475.3" y1="397.8" x2="475.3" y2="395.4"/>
<line style="&st3;" x1="484.2" y1="397.8" x2="484.2" y2="395.4"/>
<path style="&st3;" d="M343.2,404.6h7.8c1.4,0,2.4,1.1,2.4,2.4v8.6"/>
<path style="&st3;" d="M335.5,415.7h35.9c1.4,0,2.4,1.1,2.4,2.4v2.8c0,1.4-1.1,2.4-2.4,2.4h-35.9c-1.4,0-2.4-1.1-2.4-2.4v-2.8
	C333,416.7,334.2,415.7,335.5,415.7z"/>
<line style="&st3;" x1="353.4" y1="423.3" x2="353.4" y2="428.4"/>
<path style="&st3;" d="M333,428.5h38.4c1.4,0,2.4-1.1,2.4-2.4v-0.2"/>
<path style="&st4;" d="M525.9,428.5h15.3"/>
<path style="&st3;" d="M469.8,415.7h38.4c1.4,0,2.4-1.1,2.4-2.4v-0.2"/>
<path style="&st3;" d="M381.5,397.8h-0.1c-1.4,0-2.4,1.1-2.4,2.4v13c0,1.4,1.1,2.4,2.4,2.4h0.1"/>
<path style="&st3;" d="M386.6,397.8h0.1c1.4,0,2.4,1.1,2.4,2.4v13c0,1.4-1.1,2.4-2.4,2.4h-0.1"/>
<path style="&st3;" d="M384,395.4v25.5c0,1.4-1.1,2.4-2.4,2.4h-0.2c-1.4,0-2.4,1.1-2.4,2.4v0.2c0,1.4,1.1,2.4,2.4,2.4h7.8"/>
<path style="&st3;" d="M394.2,395.4L394.2,395.4c0,1.4,1.1,2.4,2.4,2.4h20.6c1.4,0,2.4,1.1,2.4,2.4v0.2c0,1.4-1.1,2.4-2.4,2.4H394
	c-1.4,0-2.4,1.1-2.4,2.4v0.2c0,1.4,1.1,2.4,2.4,2.4h23.2c1.4,0,2.4,1.1,2.4,2.4v2.7"/>
<path style="&st3;" d="M494.6,395.4L494.6,395.4c0,1.4,1.1,2.4,2.4,2.4h10.4c1.4,0,2.4,1.1,2.4,2.4v0.2c0,1.4-1.1,2.4-2.4,2.4h-11.2
	c-1.4,0-2.4,1-2.4,2.4v2.6c0,1.4,1,2.4,2.4,2.4h13.7"/>
<path style="&st3;" d="M455.1,400.1v4.2c0,1.4-1.1,1.9-2.4,1.9H428c-1.4,0-2.4,1.1-2.4,2.4v3.5c0,1.4,1.1,2.4,2.4,2.4h24.7
	c1.4,0,2.4,1.1,2.4,2.4v3.7c0,1.4-1.1,2.4-2.4,2.4h-23.8c-1.4,0-2.4,1.1-2.4,2.4v3.2"/>
<line style="&st3;" x1="391.8" y1="415.7" x2="419.8" y2="415.7"/>
<line style="&st3;" x1="391.8" y1="420.8" x2="419.8" y2="420.8"/>
<line style="&st3;" x1="391.8" y1="425.9" x2="419.8" y2="425.9"/>
<line style="&st3;" x1="404.5" y1="410.6" x2="404.5" y2="415.7"/>
<line style="&st3;" x1="404.5" y1="425.9" x2="404.5" y2="433.5"/>
<line style="&st3;" x1="471.2" y1="420.8" x2="508.2" y2="420.8"/>
<line style="&st3;" x1="469.8" y1="425.9" x2="509.8" y2="425.9"/>
<path style="&st3;" d="M490.5,425.9v5.2c0,1.4-1.1,2.4-2.4,2.4h-2.4"/>
<line style="&st3;" x1="455.1" y1="404.4" x2="455.1" y2="395.4"/>
<line style="&st3;" x1="427.8" y1="397.8" x2="450.9" y2="397.8"/>
<line style="&st3;" x1="469.8" y1="397.8" x2="490.3" y2="397.8"/>
<line style="&st3;" x1="461.6" y1="395.4" x2="461.6" y2="428.8"/>
<path style="&st4;" d="M533.9,428.5V398c0-0.9-1.1-1.5-1.8-0.8l-6,6"/>
<path style="&st3;" d="M471.2,401.5h16.1c1.4,0,2.4,1,2.4,2.4v4.1c0,1.4-1,2.4-2.4,2.4H472c-1.4,0-2.4-1-2.4-2.4l0,0
	c0-1.4,1-2.4,2.4-2.4h13.6"/>
<line style="&st4;" x1="543.8" y1="428.4" x2="543.8" y2="426.5"/>
<path style="&st4;" d="M557.2,396.6h-5.7c-2.6,0-4.9,2.2-4.9,4.9v22.5c0,2.6,2.2,4.9,4.9,4.9h5.7c2.6,0,4.9-2.2,4.9-4.9v-22.5
	C562.1,398.8,559.9,396.6,557.2,396.6z"/>
</svg>
