<?xml version="1.0" encoding="utf-8"?>
<!-- Generator: Adobe Illustrator 17.1.0, SVG Export Plug-In . SVG Version: 6.00 Build 0)  -->
<!DOCTYPE svg PUBLIC "-//W3C//DTD SVG 1.1//EN" "http://www.w3.org/Graphics/SVG/1.1/DTD/svg11.dtd" [
	<!ENTITY st0 "fill-rule:evenodd;clip-rule:evenodd;fill:#FFFFFF;">
]>
<svg version="1.1" id="图层_1" xmlns="http://www.w3.org/2000/svg" xmlns:xlink="http://www.w3.org/1999/xlink" x="0px" y="0px"
	 viewBox="0 0 24.5 19.5" style="enable-background:new 0 0 24.5 19.5;" xml:space="preserve">
<path style="&st0;" d="M24.4,4.3L24.4,4.3L21,12c-0.2,0.4-0.5,0.6-1,0.7l-9.9,0.7l0.6,1.6h10.8c1.3,0,2.3,1,2.3,2.3
	c0,1.3-1,2.3-2.3,2.3c-1.3,0-2.3-1-2.3-2.3H8.4c0,1.3-1,2.3-2.3,2.3c-1.3,0-2.3-1-2.3-2.3c0-1.3,1-2.3,2.3-2.3h2.1L3.8,2.3H1.1
	C0.5,2.3,0,1.8,0,1.1S0.5,0,1.1,0h3.4c0.5,0,0.9,0.3,1.1,0.8l0,0l0.7,1.9h17c0.6,0,1.1,0.5,1.1,1.1C24.5,4,24.5,4.2,24.4,4.3 M7.2,5
	L9.3,11l9.9-0.7L21.6,5H7.2z"/>
</svg>
